<svg width="290" height="260" viewBox="0 0 290 260" fill="none" xmlns="http://www.w3.org/2000/svg">
<g clip-path="url(#clip0_73_81)">
<path d="M261.475 135.308C261.513 167.48 249.432 198.415 227.771 221.609C226.465 223.016 225.124 224.389 223.748 225.729C221.651 227.782 219.484 229.756 217.246 231.65C196.312 249.403 170.177 259.379 143.06 259.968C142.156 259.989 141.249 260 140.339 260C118.712 260 91.5097 248.11 66.8242 231.65C64.7818 230.288 62.7577 228.895 60.7517 227.47C59.814 226.81 58.881 226.141 57.9524 225.462C48.4315 218.542 39.3943 210.943 30.9074 202.72C25.3507 197.352 20.14 191.617 15.3085 185.551C-3.65919 161.469 -7.84277 139.769 19.1988 135.308C22.4004 134.782 25.5077 134.219 28.5207 133.62C32.885 132.757 37.0618 131.824 41.051 130.823C46.4245 129.479 51.473 128.021 56.1965 126.45C57.7853 125.924 59.3379 125.387 60.854 124.839C83.2687 116.735 98.271 106.168 108.483 94.7023C110.215 92.7615 111.812 90.7973 113.273 88.8097C115.509 85.7844 117.541 82.6042 119.353 79.2917C121.853 74.6893 123.954 69.8682 125.63 64.8849L125.722 64.6112C133.847 40.4863 131.375 18.1092 140.339 10.6198C178.656 -21.3981 226.36 24.1984 248.751 77.9686C249.879 80.678 250.941 83.4038 251.935 86.1459C252.382 87.3708 252.813 88.598 253.227 89.8275C254.318 93.0317 255.308 96.2442 256.197 99.4648C256.538 100.693 256.863 101.92 257.172 103.146C257.503 104.469 257.82 105.789 258.113 107.109C260.292 116.771 261.475 126.299 261.475 135.308Z" fill="#F2F2F2"/>
<path d="M143.06 259.968C142.156 259.989 141.249 260 140.339 260C118.712 260 91.5098 248.11 66.8242 231.65C64.7819 230.288 62.7577 228.895 60.7517 227.47L62.5111 216.45L115.773 209.171L142.504 230.211L143.06 259.968Z" fill="#2F2E41"/>
<path d="M145.624 63.1898H138.034C137.799 63.1899 137.573 63.2861 137.407 63.4572C137.241 63.6283 137.147 63.8603 137.147 64.1023V71.9181C137.147 72.0377 137.17 72.1562 137.215 72.2666C137.26 72.3771 137.325 72.4774 137.407 72.5618C137.49 72.6463 137.587 72.7131 137.695 72.7587C137.802 72.8042 137.918 72.8274 138.034 72.8271H145.624C145.858 72.8272 146.083 72.7316 146.249 72.5612C146.416 72.3908 146.509 72.1595 146.51 71.9181V64.1023C146.509 63.8605 146.416 63.6288 146.25 63.4578C146.084 63.2869 145.858 63.1905 145.624 63.1898Z" fill="white"/>
<path d="M145.624 76.5087H138.034C137.799 76.5088 137.573 76.6049 137.407 76.7761C137.241 76.9472 137.147 77.1792 137.147 77.4212V85.237C137.147 85.3566 137.17 85.475 137.215 85.5855C137.26 85.696 137.325 85.7963 137.407 85.8807C137.49 85.9651 137.587 86.032 137.695 86.0775C137.802 86.1231 137.918 86.1463 138.034 86.146H145.624C145.858 86.1461 146.083 86.0504 146.249 85.8801C146.416 85.7097 146.509 85.4784 146.51 85.237V77.4212C146.509 77.1794 146.416 76.9477 146.25 76.7767C146.084 76.6057 145.859 76.5094 145.624 76.5087Z" fill="#E6E6E6"/>
<path d="M145.624 89.8275H138.034C137.799 89.8276 137.573 89.9238 137.407 90.0949C137.241 90.266 137.147 90.4981 137.147 90.74V98.5524C137.147 98.6722 137.17 98.791 137.214 98.9018C137.259 99.0126 137.324 99.1133 137.406 99.1981C137.489 99.2829 137.587 99.3501 137.694 99.3958C137.802 99.4416 137.917 99.465 138.034 99.4648H145.624C145.859 99.4647 146.084 99.3685 146.25 99.1974C146.417 99.0264 146.51 98.7943 146.51 98.5524V90.74C146.509 90.4982 146.416 90.2665 146.25 90.0956C146.084 89.9246 145.859 89.8282 145.624 89.8275Z" fill="#E6E6E6"/>
<path d="M146.496 103.897C146.459 103.687 146.351 103.497 146.191 103.36C146.032 103.223 145.831 103.147 145.624 103.146H138.034C137.799 103.146 137.573 103.243 137.407 103.414C137.241 103.585 137.147 103.817 137.147 104.059V111.871C137.147 111.991 137.17 112.11 137.214 112.221C137.259 112.331 137.324 112.432 137.406 112.517C137.489 112.602 137.587 112.669 137.694 112.715C137.802 112.76 137.917 112.784 138.034 112.784H145.624C145.859 112.784 146.084 112.687 146.25 112.516C146.417 112.345 146.51 112.113 146.51 111.871V104.059C146.511 104.005 146.506 103.951 146.496 103.897Z" fill="#E6E6E6"/>
<path d="M145.968 116.535C145.859 116.489 145.742 116.465 145.624 116.465H138.034C137.917 116.465 137.802 116.488 137.694 116.534C137.587 116.58 137.489 116.647 137.406 116.732C137.324 116.817 137.259 116.917 137.214 117.028C137.17 117.139 137.147 117.258 137.147 117.378V125.19C137.147 125.31 137.169 125.429 137.214 125.54C137.258 125.651 137.323 125.752 137.406 125.836C137.488 125.921 137.586 125.989 137.694 126.034C137.802 126.08 137.917 126.103 138.034 126.103H145.624C145.859 126.102 146.084 126.006 146.25 125.835C146.417 125.664 146.51 125.432 146.51 125.19V117.378C146.51 117.198 146.458 117.023 146.362 116.873C146.265 116.723 146.128 116.606 145.968 116.535Z" fill="#E6E6E6"/>
<path d="M161.567 63.1898H153.977C153.742 63.1899 153.517 63.2861 153.35 63.4572C153.184 63.6283 153.091 63.8603 153.091 64.1023V71.9181C153.091 72.0377 153.114 72.1562 153.158 72.2666C153.203 72.3771 153.268 72.4774 153.351 72.5618C153.433 72.6463 153.531 72.7131 153.638 72.7587C153.746 72.8042 153.861 72.8274 153.977 72.8271H161.567C161.801 72.8272 162.027 72.7316 162.193 72.5612C162.359 72.3908 162.453 72.1595 162.453 71.9181V64.1023C162.453 63.8605 162.359 63.6288 162.193 63.4578C162.027 63.2869 161.802 63.1905 161.567 63.1898Z" fill="#E6E6E6"/>
<path d="M161.567 76.5087H153.977C153.742 76.5088 153.517 76.6049 153.35 76.7761C153.184 76.9472 153.091 77.1792 153.091 77.4212V85.237C153.091 85.3566 153.114 85.475 153.158 85.5855C153.203 85.696 153.268 85.7963 153.351 85.8807C153.433 85.9651 153.531 86.032 153.638 86.0775C153.746 86.1231 153.861 86.1463 153.977 86.146H161.567C161.801 86.1461 162.027 86.0504 162.193 85.8801C162.359 85.7097 162.453 85.4784 162.453 85.237V77.4212C162.453 77.1794 162.359 76.9477 162.193 76.7767C162.027 76.6057 161.802 76.5094 161.567 76.5087Z" fill="#608AF5"/>
<path d="M161.567 89.8275H153.977C153.742 89.8276 153.517 89.9238 153.35 90.0949C153.184 90.266 153.091 90.4981 153.091 90.74V98.5524C153.09 98.6722 153.113 98.791 153.158 98.9018C153.202 99.0126 153.267 99.1133 153.35 99.1981C153.432 99.2829 153.53 99.3501 153.638 99.3958C153.745 99.4416 153.861 99.465 153.977 99.4648H161.567C161.802 99.4647 162.027 99.3685 162.194 99.1974C162.36 99.0264 162.453 98.7943 162.453 98.5524V90.74C162.453 90.4982 162.359 90.2665 162.193 90.0956C162.027 89.9246 161.802 89.8282 161.567 89.8275Z" fill="#608AF5"/>
<path d="M161.567 103.146H153.977C153.791 103.147 153.61 103.207 153.46 103.319C153.309 103.431 153.197 103.589 153.138 103.771C153.107 103.864 153.091 103.961 153.091 104.059V111.871C153.09 111.991 153.113 112.11 153.158 112.221C153.202 112.331 153.267 112.432 153.35 112.517C153.432 112.602 153.53 112.669 153.638 112.715C153.745 112.76 153.861 112.784 153.977 112.784H161.567C161.802 112.784 162.027 112.687 162.194 112.516C162.36 112.345 162.453 112.113 162.453 111.871V104.059C162.453 103.817 162.359 103.585 162.193 103.414C162.027 103.243 161.802 103.147 161.567 103.146Z" fill="#608AF5"/>
<path d="M161.567 116.465H153.977C153.861 116.465 153.745 116.488 153.638 116.534C153.53 116.58 153.432 116.647 153.35 116.732C153.267 116.817 153.202 116.917 153.158 117.028C153.113 117.139 153.09 117.258 153.091 117.378V125.19C153.09 125.31 153.113 125.429 153.158 125.54C153.202 125.65 153.267 125.751 153.35 125.836C153.432 125.921 153.53 125.988 153.638 126.034C153.745 126.079 153.861 126.103 153.977 126.103H161.567C161.802 126.102 162.027 126.006 162.194 125.835C162.36 125.664 162.453 125.432 162.453 125.19V117.378C162.453 117.136 162.36 116.904 162.194 116.733C162.027 116.562 161.802 116.465 161.567 116.465Z" fill="#E6E6E6"/>
<path d="M177.51 63.1898H169.921C169.685 63.1899 169.46 63.2861 169.294 63.4572C169.128 63.6283 169.034 63.8603 169.034 64.1023V71.9181C169.034 72.0377 169.057 72.1562 169.102 72.2666C169.146 72.3771 169.212 72.4774 169.294 72.5618C169.376 72.6463 169.474 72.7131 169.582 72.7587C169.689 72.8042 169.804 72.8274 169.921 72.8271H177.51C177.745 72.8272 177.97 72.7316 178.136 72.5612C178.302 72.3908 178.396 72.1595 178.397 71.9181V64.1023C178.396 63.8605 178.302 63.6288 178.136 63.4578C177.97 63.2869 177.745 63.1905 177.51 63.1898Z" fill="#608AF5"/>
<path d="M177.51 76.5087H169.921C169.685 76.5088 169.46 76.6049 169.294 76.7761C169.128 76.9472 169.034 77.1792 169.034 77.4212V85.237C169.034 85.3566 169.057 85.475 169.102 85.5855C169.146 85.696 169.212 85.7963 169.294 85.8807C169.376 85.9651 169.474 86.032 169.582 86.0775C169.689 86.1231 169.804 86.1463 169.921 86.146H177.51C177.745 86.1461 177.97 86.0504 178.136 85.8801C178.302 85.7097 178.396 85.4784 178.397 85.237V77.4212C178.396 77.1794 178.302 76.9477 178.136 76.7767C177.97 76.6057 177.745 76.5094 177.51 76.5087Z" fill="#608AF5"/>
<path d="M177.51 89.8275H169.921C169.685 89.8276 169.46 89.9238 169.294 90.0949C169.128 90.266 169.034 90.4981 169.034 90.74V98.5524C169.034 98.6722 169.057 98.791 169.101 98.9018C169.146 99.0126 169.211 99.1133 169.293 99.1981C169.376 99.2829 169.473 99.3501 169.581 99.3958C169.689 99.4416 169.804 99.465 169.921 99.4648H177.51C177.745 99.4647 177.971 99.3685 178.137 99.1974C178.303 99.0264 178.397 98.7943 178.397 98.5524V90.74C178.396 90.4982 178.302 90.2665 178.136 90.0956C177.97 89.9246 177.745 89.8282 177.51 89.8275Z" fill="#E6E6E6"/>
<path d="M177.51 103.146H169.921C169.685 103.146 169.46 103.243 169.294 103.414C169.128 103.585 169.034 103.817 169.034 104.059V111.871C169.034 111.991 169.057 112.11 169.101 112.221C169.146 112.331 169.211 112.432 169.293 112.517C169.376 112.602 169.473 112.669 169.581 112.715C169.689 112.76 169.804 112.784 169.921 112.784H177.51C177.745 112.784 177.971 112.687 178.137 112.516C178.303 112.345 178.397 112.113 178.397 111.871V104.059C178.396 103.817 178.302 103.585 178.136 103.414C177.97 103.243 177.745 103.147 177.51 103.146Z" fill="#608AF5"/>
<path d="M177.51 116.465H169.921C169.804 116.465 169.689 116.488 169.581 116.534C169.473 116.58 169.376 116.647 169.293 116.732C169.211 116.817 169.146 116.917 169.101 117.028C169.057 117.139 169.034 117.258 169.034 117.378V125.19C169.034 125.31 169.057 125.429 169.101 125.54C169.146 125.65 169.211 125.751 169.293 125.836C169.376 125.921 169.473 125.988 169.581 126.034C169.689 126.079 169.804 126.103 169.921 126.103H177.51C177.745 126.102 177.971 126.006 178.137 125.835C178.303 125.664 178.397 125.432 178.397 125.19V117.378C178.397 117.136 178.303 116.904 178.137 116.733C177.971 116.562 177.745 116.465 177.51 116.465Z" fill="#608AF5"/>
<path d="M193.454 63.1898H185.864C185.629 63.1899 185.403 63.2861 185.237 63.4572C185.071 63.6283 184.977 63.8603 184.977 64.1023V71.9181C184.977 72.0377 185 72.1562 185.045 72.2666C185.09 72.3771 185.155 72.4774 185.237 72.5618C185.32 72.6463 185.417 72.7132 185.525 72.7587C185.632 72.8042 185.748 72.8274 185.864 72.8271H193.454C193.688 72.8272 193.913 72.7316 194.079 72.5612C194.246 72.3908 194.339 72.1595 194.34 71.9181V64.1023C194.339 63.8605 194.246 63.6288 194.08 63.4578C193.914 63.2869 193.688 63.1905 193.454 63.1898Z" fill="#608AF5"/>
<path d="M193.454 76.5087H185.864C185.629 76.5088 185.403 76.6049 185.237 76.7761C185.071 76.9472 184.977 77.1792 184.977 77.4212V85.237C184.977 85.3566 185 85.4751 185.045 85.5855C185.09 85.696 185.155 85.7963 185.237 85.8807C185.32 85.9651 185.417 86.032 185.525 86.0775C185.632 86.1231 185.748 86.1463 185.864 86.146H193.454C193.688 86.1461 193.913 86.0504 194.079 85.8801C194.246 85.7097 194.339 85.4784 194.34 85.237V77.4212C194.339 77.1794 194.246 76.9477 194.08 76.7767C193.914 76.6057 193.688 76.5094 193.454 76.5087Z" fill="white"/>
<path d="M193.454 89.8275H185.864C185.629 89.8276 185.403 89.9238 185.237 90.0949C185.071 90.266 184.977 90.4981 184.977 90.74V98.5524C184.977 98.6723 185 98.791 185.044 98.9018C185.089 99.0126 185.154 99.1133 185.236 99.1981C185.319 99.2829 185.417 99.3501 185.524 99.3958C185.632 99.4416 185.747 99.465 185.864 99.4648H193.454C193.689 99.4647 193.914 99.3685 194.08 99.1974C194.247 99.0264 194.34 98.7943 194.34 98.5524V90.74C194.339 90.4982 194.246 90.2665 194.08 90.0956C193.914 89.9246 193.688 89.8282 193.454 89.8275Z" fill="white"/>
<path d="M193.454 103.146H185.864C185.629 103.146 185.403 103.243 185.237 103.414C185.071 103.585 184.977 103.817 184.977 104.059V111.871C184.977 111.991 185 112.11 185.044 112.221C185.089 112.331 185.154 112.432 185.236 112.517C185.319 112.602 185.417 112.669 185.524 112.715C185.632 112.76 185.747 112.784 185.864 112.784H193.454C193.689 112.784 193.914 112.687 194.08 112.516C194.247 112.345 194.34 112.113 194.34 111.871V104.059C194.339 103.817 194.246 103.585 194.08 103.414C193.914 103.243 193.688 103.147 193.454 103.146Z" fill="#E6E6E6"/>
<path d="M193.454 116.465H185.864C185.747 116.465 185.632 116.488 185.524 116.534C185.417 116.58 185.319 116.647 185.236 116.732C185.154 116.817 185.089 116.917 185.044 117.028C185 117.139 184.977 117.258 184.977 117.378V125.19C184.977 125.31 185 125.429 185.044 125.54C185.089 125.65 185.154 125.751 185.236 125.836C185.319 125.921 185.417 125.988 185.524 126.034C185.632 126.079 185.747 126.103 185.864 126.103H193.454C193.689 126.102 193.914 126.006 194.08 125.835C194.247 125.664 194.34 125.432 194.34 125.19V117.378C194.34 117.136 194.247 116.904 194.08 116.733C193.914 116.562 193.689 116.465 193.454 116.465Z" fill="#608AF5"/>
<path d="M209.397 63.1898H201.804C201.569 63.1907 201.345 63.2872 201.179 63.4582C201.013 63.6292 200.921 63.8608 200.921 64.1023V71.9181C200.921 72.1592 201.014 72.3904 201.179 72.5608C201.345 72.7313 201.57 72.8271 201.804 72.8271H209.397C209.632 72.8272 209.857 72.7316 210.023 72.5612C210.189 72.3908 210.283 72.1595 210.283 71.9181V64.1023C210.283 63.8605 210.189 63.6288 210.023 63.4578C209.857 63.2869 209.632 63.1905 209.397 63.1898Z" fill="white"/>
<path d="M209.397 76.5087H201.804C201.569 76.5095 201.345 76.606 201.179 76.7771C201.013 76.9481 200.921 77.1797 200.921 77.4212V85.237C200.921 85.478 201.014 85.7092 201.179 85.8797C201.345 86.0501 201.57 86.1459 201.804 86.146H209.397C209.632 86.146 209.857 86.0504 210.023 85.88C210.189 85.7097 210.283 85.4784 210.283 85.237V77.4212C210.283 77.1794 210.189 76.9477 210.023 76.7767C209.857 76.6057 209.632 76.5094 209.397 76.5087Z" fill="white"/>
<path d="M209.397 89.8275H201.804C201.569 89.8284 201.345 89.9249 201.179 90.0959C201.013 90.267 200.921 90.4986 200.921 90.74V98.5524C200.92 98.672 200.943 98.7905 200.987 98.9011C201.031 99.0118 201.096 99.1123 201.178 99.1971C201.26 99.2818 201.358 99.3491 201.465 99.395C201.572 99.441 201.688 99.4647 201.804 99.4648H209.397C209.632 99.4647 209.857 99.3685 210.024 99.1974C210.19 99.0264 210.283 98.7943 210.283 98.5524V90.74C210.283 90.4982 210.189 90.2665 210.023 90.0956C209.857 89.9246 209.632 89.8282 209.397 89.8275Z" fill="white"/>
<path d="M209.397 103.146H201.804C201.569 103.147 201.345 103.244 201.179 103.415C201.013 103.586 200.921 103.817 200.921 104.059V111.871C200.92 111.991 200.943 112.109 200.987 112.22C201.031 112.331 201.096 112.431 201.178 112.516C201.26 112.601 201.358 112.668 201.465 112.714C201.572 112.76 201.688 112.784 201.804 112.784H209.397C209.632 112.784 209.857 112.687 210.024 112.516C210.19 112.345 210.283 112.113 210.283 111.871V104.059C210.283 103.817 210.189 103.585 210.023 103.414C209.857 103.243 209.632 103.147 209.397 103.146Z" fill="#608AF5"/>
<path d="M209.397 116.465H201.804C201.688 116.465 201.572 116.489 201.465 116.535C201.358 116.581 201.26 116.648 201.178 116.733C201.096 116.818 201.031 116.918 200.987 117.029C200.943 117.14 200.92 117.258 200.921 117.378V125.19C200.92 125.31 200.943 125.428 200.987 125.539C201.031 125.649 201.096 125.75 201.178 125.835C201.26 125.92 201.358 125.987 201.465 126.033C201.572 126.079 201.688 126.102 201.804 126.103H209.397C209.632 126.102 209.857 126.006 210.024 125.835C210.19 125.664 210.283 125.432 210.283 125.19V117.378C210.283 117.136 210.19 116.904 210.024 116.733C209.857 116.562 209.632 116.465 209.397 116.465Z" fill="#E6E6E6"/>
<path d="M225.34 63.1898H217.747C217.512 63.1907 217.288 63.2872 217.122 63.4582C216.957 63.6292 216.864 63.8608 216.864 64.1023V71.9181C216.864 72.1592 216.957 72.3904 217.123 72.5608C217.288 72.7313 217.513 72.8271 217.747 72.8271H225.34C225.575 72.8272 225.8 72.7316 225.966 72.5612C226.132 72.3908 226.226 72.1595 226.227 71.9181V64.1023C226.226 63.8605 226.132 63.6288 225.966 63.4578C225.8 63.2869 225.575 63.1905 225.34 63.1898Z" fill="white"/>
<path d="M225.34 76.5087H217.747C217.512 76.5095 217.288 76.606 217.122 76.7771C216.957 76.9481 216.864 77.1797 216.864 77.4212V85.237C216.864 85.478 216.957 85.7092 217.123 85.8797C217.288 86.0501 217.513 86.1459 217.747 86.146H225.34C225.575 86.146 225.8 86.0504 225.966 85.88C226.132 85.7096 226.226 85.4784 226.227 85.237V77.4212C226.226 77.1794 226.132 76.9477 225.966 76.7767C225.8 76.6057 225.575 76.5094 225.34 76.5087Z" fill="white"/>
<path d="M225.34 89.8275H217.747C217.512 89.8284 217.288 89.9249 217.122 90.0959C216.957 90.267 216.864 90.4986 216.864 90.74V98.5524C216.864 98.672 216.886 98.7905 216.93 98.9011C216.975 99.0118 217.04 99.1123 217.122 99.1971C217.204 99.2818 217.301 99.3491 217.408 99.395C217.516 99.441 217.631 99.4647 217.747 99.4648H225.34C225.575 99.4647 225.801 99.3685 225.967 99.1974C226.133 99.0263 226.227 98.7943 226.227 98.5524V90.74C226.226 90.4982 226.132 90.2666 225.966 90.0956C225.8 89.9246 225.575 89.8282 225.34 89.8275Z" fill="#608AF5"/>
<path d="M225.34 103.146H217.747C217.512 103.147 217.288 103.244 217.122 103.415C216.957 103.586 216.864 103.817 216.864 104.059V111.871C216.864 111.991 216.886 112.109 216.93 112.22C216.975 112.331 217.04 112.431 217.122 112.516C217.204 112.601 217.301 112.668 217.408 112.714C217.516 112.76 217.631 112.784 217.747 112.784H225.34C225.575 112.784 225.801 112.687 225.967 112.516C226.133 112.345 226.227 112.113 226.227 111.871V104.059C226.226 103.817 226.132 103.585 225.966 103.414C225.8 103.243 225.575 103.147 225.34 103.146Z" fill="#E6E6E6"/>
<path d="M225.34 116.465H217.747C217.631 116.465 217.516 116.489 217.408 116.535C217.301 116.581 217.204 116.648 217.122 116.733C217.04 116.818 216.975 116.918 216.93 117.029C216.886 117.14 216.864 117.258 216.864 117.378V125.19C216.864 125.31 216.886 125.428 216.93 125.539C216.975 125.649 217.04 125.75 217.122 125.835C217.204 125.92 217.301 125.987 217.408 126.033C217.516 126.079 217.631 126.102 217.747 126.103H225.34C225.575 126.102 225.801 126.006 225.967 125.835C226.133 125.664 226.227 125.432 226.227 125.19V117.378C226.227 117.136 226.133 116.904 225.967 116.733C225.801 116.562 225.575 116.465 225.34 116.465Z" fill="white"/>
<path d="M241.284 63.1898H233.69C233.456 63.1907 233.231 63.2872 233.066 63.4582C232.9 63.6292 232.807 63.8608 232.807 64.1023V71.9181C232.807 72.1592 232.9 72.3904 233.066 72.5608C233.232 72.7313 233.456 72.8271 233.69 72.8271H241.284C241.518 72.8272 241.743 72.7316 241.909 72.5612C242.075 72.3908 242.169 72.1595 242.17 71.9181V64.1023C242.169 63.8605 242.076 63.6288 241.91 63.4578C241.743 63.2869 241.518 63.1905 241.284 63.1898Z" fill="#608AF5"/>
<path d="M241.284 76.5087H233.69C233.456 76.5095 233.231 76.606 233.066 76.7771C232.9 76.9481 232.807 77.1797 232.807 77.4212V85.237C232.807 85.478 232.9 85.7092 233.066 85.8797C233.232 86.0501 233.456 86.1459 233.69 86.146H241.284C241.518 86.146 241.743 86.0504 241.909 85.88C242.075 85.7096 242.169 85.4784 242.17 85.237V77.4212C242.169 77.1794 242.076 76.9477 241.91 76.7767C241.743 76.6057 241.518 76.5094 241.284 76.5087Z" fill="#608AF5"/>
<path d="M241.283 89.8275H233.69C233.456 89.8284 233.231 89.9249 233.066 90.0959C232.9 90.267 232.807 90.4986 232.807 90.74V98.5524C232.807 98.672 232.83 98.7905 232.874 98.9011C232.918 99.0118 232.983 99.1123 233.065 99.1971C233.147 99.2818 233.244 99.3491 233.352 99.395C233.459 99.441 233.574 99.4647 233.69 99.4648H241.283C241.519 99.4647 241.744 99.3685 241.91 99.1974C242.076 99.0263 242.17 98.7943 242.17 98.5524V90.74C242.169 90.4982 242.076 90.2666 241.91 90.0956C241.743 89.9246 241.518 89.8282 241.283 89.8275Z" fill="#E6E6E6"/>
<path d="M241.283 103.146H233.69C233.456 103.147 233.231 103.244 233.066 103.415C232.9 103.586 232.807 103.817 232.807 104.059V111.871C232.807 111.991 232.83 112.109 232.874 112.22C232.918 112.331 232.983 112.431 233.065 112.516C233.147 112.601 233.244 112.668 233.352 112.714C233.459 112.76 233.574 112.784 233.69 112.784H241.283C241.519 112.784 241.744 112.687 241.91 112.516C242.076 112.345 242.17 112.113 242.17 111.871V104.059C242.169 103.817 242.076 103.585 241.91 103.414C241.743 103.243 241.518 103.147 241.283 103.146Z" fill="white"/>
<path d="M241.283 116.465H233.69C233.574 116.465 233.459 116.489 233.352 116.535C233.244 116.581 233.147 116.648 233.065 116.733C232.983 116.818 232.918 116.918 232.874 117.029C232.83 117.14 232.807 117.258 232.807 117.378V125.19C232.807 125.31 232.83 125.428 232.874 125.539C232.918 125.649 232.983 125.75 233.065 125.835C233.147 125.92 233.244 125.987 233.352 126.033C233.459 126.079 233.574 126.102 233.69 126.103H241.283C241.519 126.102 241.744 126.006 241.91 125.835C242.076 125.664 242.17 125.432 242.17 125.19V117.378C242.17 117.136 242.076 116.904 241.91 116.733C241.744 116.562 241.519 116.465 241.283 116.465Z" fill="#608AF5"/>
<path d="M257.227 63.1898H249.634C249.399 63.1907 249.175 63.2872 249.009 63.4582C248.843 63.6292 248.751 63.8608 248.751 64.1023V71.9181C248.751 72.1592 248.844 72.3904 249.009 72.5608C249.175 72.7313 249.4 72.8271 249.634 72.8271H257.227C257.461 72.8272 257.686 72.7316 257.853 72.5612C258.019 72.3908 258.113 72.1595 258.113 71.9181V64.1023C258.113 63.8605 258.019 63.6288 257.853 63.4578C257.687 63.2869 257.462 63.1905 257.227 63.1898Z" fill="#608AF5"/>
<path d="M257.227 76.5087H249.634C249.399 76.5095 249.174 76.606 249.009 76.7771C248.843 76.9481 248.751 77.1797 248.751 77.4212V85.237C248.751 85.478 248.844 85.7092 249.009 85.8797C249.175 86.0501 249.4 86.1459 249.634 86.146H257.227C257.461 86.146 257.686 86.0504 257.853 85.88C258.019 85.7096 258.113 85.4784 258.113 85.237V77.4212C258.113 77.1794 258.019 76.9477 257.853 76.7767C257.687 76.6057 257.462 76.5094 257.227 76.5087Z" fill="#608AF5"/>
<path d="M257.227 89.8275H249.634C249.399 89.8284 249.174 89.9249 249.009 90.0959C248.843 90.267 248.751 90.4986 248.751 90.74V98.5524C248.75 98.672 248.773 98.7905 248.817 98.9011C248.861 99.0118 248.926 99.1123 249.008 99.1971C249.09 99.2818 249.188 99.3491 249.295 99.395C249.402 99.441 249.517 99.4647 249.634 99.4648H257.227C257.462 99.4647 257.687 99.3685 257.854 99.1974C258.02 99.0263 258.113 98.7943 258.113 98.5524V90.74C258.113 90.4982 258.019 90.2666 257.853 90.0956C257.687 89.9246 257.462 89.8282 257.227 89.8275Z" fill="#E6E6E6"/>
<path d="M257.227 103.146H249.634C249.399 103.147 249.175 103.244 249.009 103.415C248.843 103.586 248.751 103.817 248.751 104.059V111.871C248.75 111.991 248.773 112.109 248.817 112.22C248.861 112.331 248.926 112.431 249.008 112.516C249.09 112.601 249.188 112.668 249.295 112.714C249.402 112.76 249.517 112.784 249.634 112.784H257.227C257.462 112.784 257.687 112.687 257.854 112.516C258.02 112.345 258.113 112.113 258.113 111.871V104.059C258.113 103.817 258.019 103.585 257.853 103.414C257.687 103.243 257.462 103.147 257.227 103.146Z" fill="#608AF5"/>
<path d="M257.227 116.465H249.634C249.517 116.465 249.402 116.489 249.295 116.535C249.188 116.581 249.09 116.648 249.008 116.733C248.926 116.818 248.861 116.918 248.817 117.029C248.773 117.14 248.75 117.258 248.751 117.378V125.19C248.75 125.31 248.773 125.428 248.817 125.539C248.861 125.649 248.926 125.75 249.008 125.835C249.09 125.92 249.188 125.987 249.295 126.033C249.402 126.079 249.517 126.102 249.634 126.103H257.227C257.462 126.102 257.687 126.006 257.854 125.835C258.02 125.664 258.113 125.432 258.113 125.19V117.378C258.113 117.136 258.02 116.904 257.854 116.733C257.687 116.562 257.462 116.465 257.227 116.465Z" fill="#608AF5"/>
<path d="M273.17 63.1898H265.577C265.342 63.1907 265.118 63.2872 264.952 63.4582C264.787 63.6292 264.694 63.8608 264.694 64.1023V71.9181C264.694 72.1592 264.787 72.3904 264.953 72.5608C265.118 72.7313 265.343 72.8271 265.577 72.8271H273.17C273.405 72.8272 273.63 72.7316 273.796 72.5612C273.962 72.3908 274.056 72.1595 274.057 71.9181V64.1023C274.056 63.8605 273.962 63.6288 273.796 63.4578C273.63 63.2869 273.405 63.1905 273.17 63.1898Z" fill="#E6E6E6"/>
<path d="M273.17 76.5087H265.577C265.342 76.5095 265.118 76.606 264.952 76.7771C264.787 76.9481 264.694 77.1797 264.694 77.4212V85.237C264.694 85.478 264.787 85.7092 264.953 85.8797C265.118 86.0501 265.343 86.1459 265.577 86.146H273.17C273.405 86.146 273.63 86.0504 273.796 85.88C273.962 85.7096 274.056 85.4784 274.057 85.237V77.4212C274.056 77.1794 273.962 76.9477 273.796 76.7767C273.63 76.6057 273.405 76.5094 273.17 76.5087Z" fill="#608AF5"/>
<path d="M273.17 89.8275H265.577C265.342 89.8284 265.118 89.9249 264.952 90.0959C264.787 90.267 264.694 90.4986 264.694 90.74V98.5524C264.694 98.672 264.716 98.7905 264.76 98.9011C264.805 99.0118 264.87 99.1123 264.952 99.1971C265.034 99.2818 265.131 99.3491 265.238 99.395C265.346 99.441 265.461 99.4647 265.577 99.4648H273.17C273.405 99.4647 273.631 99.3685 273.797 99.1974C273.963 99.0263 274.056 98.7943 274.057 98.5524V90.74C274.056 90.4982 273.962 90.2666 273.796 90.0956C273.63 89.9246 273.405 89.8282 273.17 89.8275Z" fill="#608AF5"/>
<path d="M273.17 103.146H265.577C265.342 103.147 265.118 103.244 264.952 103.415C264.787 103.586 264.694 103.817 264.694 104.059V111.871C264.694 111.991 264.716 112.109 264.76 112.22C264.805 112.331 264.87 112.431 264.952 112.516C265.034 112.601 265.131 112.668 265.238 112.714C265.346 112.76 265.461 112.784 265.577 112.784H273.17C273.405 112.784 273.631 112.687 273.797 112.516C273.963 112.345 274.056 112.113 274.057 111.871V104.059C274.056 103.817 273.962 103.585 273.796 103.414C273.63 103.243 273.405 103.147 273.17 103.146Z" fill="#608AF5"/>
<path d="M273.17 116.465H265.577C265.461 116.465 265.346 116.489 265.238 116.535C265.131 116.581 265.034 116.648 264.952 116.733C264.87 116.818 264.805 116.918 264.76 117.029C264.716 117.14 264.694 117.258 264.694 117.378V125.19C264.694 125.31 264.716 125.428 264.76 125.539C264.805 125.649 264.87 125.75 264.952 125.835C265.034 125.92 265.131 125.987 265.238 126.033C265.346 126.079 265.461 126.102 265.577 126.103H273.17C273.405 126.102 273.631 126.006 273.797 125.835C273.963 125.664 274.056 125.432 274.057 125.19V117.378C274.056 117.136 273.963 116.904 273.797 116.733C273.631 116.562 273.405 116.465 273.17 116.465Z" fill="#E6E6E6"/>
<path d="M289.114 63.1898H281.52C281.286 63.1907 281.061 63.2872 280.896 63.4582C280.73 63.6292 280.637 63.8608 280.637 64.1023V71.9181C280.637 72.1592 280.73 72.3904 280.896 72.5608C281.062 72.7313 281.286 72.8271 281.52 72.8271H289.114C289.348 72.8272 289.573 72.7316 289.739 72.5612C289.905 72.3908 289.999 72.1595 290 71.9181V64.1023C289.999 63.8605 289.906 63.6288 289.74 63.4578C289.574 63.2869 289.348 63.1905 289.114 63.1898Z" fill="#E6E6E6"/>
<path d="M289.114 76.5087H281.52C281.286 76.5095 281.061 76.606 280.896 76.7771C280.73 76.9481 280.637 77.1797 280.637 77.4212V85.237C280.637 85.478 280.73 85.7092 280.896 85.8797C281.062 86.0501 281.286 86.1459 281.52 86.146H289.114C289.348 86.146 289.573 86.0504 289.739 85.88C289.905 85.7096 289.999 85.4784 290 85.237V77.4212C289.999 77.1794 289.906 76.9477 289.74 76.7767C289.574 76.6057 289.348 76.5094 289.114 76.5087Z" fill="#E6E6E6"/>
<path d="M289.114 89.8275H281.52C281.286 89.8284 281.061 89.9249 280.896 90.0959C280.73 90.267 280.637 90.4986 280.637 90.74V98.5524C280.637 98.672 280.659 98.7905 280.704 98.9011C280.748 99.0118 280.813 99.1123 280.895 99.1971C280.977 99.2818 281.074 99.3491 281.182 99.395C281.289 99.441 281.404 99.4647 281.52 99.4648H289.114C289.349 99.4647 289.574 99.3685 289.74 99.1974C289.906 99.0263 290 98.7943 290 98.5524V90.74C289.999 90.4982 289.906 90.2666 289.74 90.0956C289.574 89.9246 289.348 89.8282 289.114 89.8275Z" fill="#608AF5"/>
<path d="M289.114 103.146H281.52C281.286 103.147 281.061 103.244 280.896 103.415C280.73 103.586 280.637 103.817 280.637 104.059V111.871C280.637 111.991 280.659 112.109 280.704 112.22C280.748 112.331 280.813 112.431 280.895 112.516C280.977 112.601 281.074 112.668 281.182 112.714C281.289 112.76 281.404 112.784 281.52 112.784H289.114C289.349 112.784 289.574 112.687 289.74 112.516C289.906 112.345 290 112.113 290 111.871V104.059C289.999 103.817 289.906 103.585 289.74 103.414C289.574 103.243 289.348 103.147 289.114 103.146Z" fill="#E6E6E6"/>
<path d="M289.114 116.465H281.52C281.404 116.465 281.289 116.489 281.182 116.535C281.074 116.581 280.977 116.648 280.895 116.733C280.813 116.818 280.748 116.918 280.704 117.029C280.659 117.14 280.637 117.258 280.637 117.378V125.19C280.637 125.31 280.659 125.428 280.704 125.539C280.748 125.649 280.813 125.75 280.895 125.835C280.977 125.92 281.074 125.987 281.182 126.033C281.289 126.079 281.404 126.102 281.52 126.103H289.114C289.349 126.102 289.574 126.006 289.74 125.835C289.906 125.664 290 125.432 290 125.19V117.378C290 117.136 289.906 116.904 289.74 116.733C289.574 116.562 289.349 116.465 289.114 116.465Z" fill="#E6E6E6"/>
<path d="M114.595 231.65H114.384L114.564 231.626L114.595 231.65Z" fill="#2F2E41"/>
<path d="M96.4286 86.0039C109.294 86.0039 119.724 75.2685 119.724 62.0258C119.724 48.783 109.294 38.0477 96.4286 38.0477C83.5631 38.0477 73.1335 48.783 73.1335 62.0258C73.1335 75.2685 83.5631 86.0039 96.4286 86.0039Z" fill="#FFB6B6"/>
<path d="M116.829 44.4454C116.829 44.4454 122.922 32.4564 109.517 31.3665C109.517 31.3665 98.09 20.6965 86.4425 29.4158C86.4425 29.4158 80.0893 29.4158 76.6151 36.816C76.6151 36.816 71.6183 34.8654 70.5203 40.0858C70.5203 40.0858 66.864 50.9849 70.5203 60.7941C74.1766 70.6034 75.391 71.6933 75.391 71.6933C75.391 71.6933 69.383 51.1277 84.0071 50.0378C98.6311 48.9478 114.996 39.5408 116.215 51.5298C117.433 63.5189 119.267 66.4729 119.267 66.4729C119.267 66.4729 130.843 49.3501 116.829 44.4454Z" fill="#2F2E41"/>
<path d="M156.688 121.119L156.613 121.526L155.771 126.103L149.95 157.759L149.606 159.623L148.883 163.564L147.894 168.94L145.702 180.855L145.075 184.27L144.839 185.551L144.758 186L144.106 189.535L143.909 190.602L142.32 202.72L140.932 213.28L145.576 218.06L142.807 220.91L140.99 231.625L140.993 231.65H66.8242C63.8237 229.649 60.8665 227.587 57.9524 225.462L58.5627 220.759C58.5627 220.759 60.663 212.361 59.7799 211.357C58.9003 210.353 56.9704 208.56 56.9704 208.56L59.4015 202.72L59.739 201.909L59.173 189.826L59.1594 189.535L58.9719 185.551L58.948 185.039L58.9105 184.27L58.1911 168.94L58.1774 168.688L57.9593 164.041L57.7547 159.622L57.666 157.759L56.7898 139.112L56.1965 126.45L55.6782 115.426L57.7615 114.7L80.0433 106.905L89.273 94.5549L108.483 94.7023L117.887 94.776L133.578 109.755L137.147 111.51L137.175 111.524L139.735 112.784L146.227 115.974L153.091 119.35L156.613 121.08L156.688 121.119Z" fill="#CACACA"/>
<path d="M91.7555 195.677C90.3478 196.238 88.8377 196.475 87.3314 196.371C85.8252 196.266 84.3595 195.823 83.0377 195.073C81.7158 194.322 80.5699 193.282 79.6806 192.027C78.7913 190.771 78.1804 189.33 77.8907 187.805L41.5583 182.499L54.1885 167.793L86.754 175.086C89.2752 174.755 91.8269 175.388 93.9254 176.864C96.0239 178.34 97.5235 180.557 98.14 183.095C98.7565 185.633 98.4471 188.316 97.2704 190.635C96.0937 192.954 94.1314 194.748 91.7555 195.677V195.677Z" fill="#FFB6B6"/>
<path d="M75.5561 168.94C74.8831 168.062 73.9303 167.457 72.866 167.231L57.9592 164.041L56.4283 163.715C55.5386 163.524 54.6981 163.141 53.9619 162.593C53.2257 162.044 52.6103 161.342 52.156 160.531C51.6848 159.681 51.3997 158.735 51.3206 157.759C51.2496 156.872 51.3528 155.979 51.6241 155.134L56.7896 139.113L60.1413 128.717C60.5475 127.463 60.7872 126.159 60.8539 124.839C61.0406 121.187 59.9428 117.587 57.7614 114.7C55.8436 112.162 53.1836 110.327 50.1745 109.465C47.1653 108.603 43.9666 108.76 41.0509 109.913C40.9657 109.944 40.877 109.98 40.7918 110.015C38.7007 110.874 36.8326 112.222 35.3348 113.953C33.8371 115.683 32.7509 117.748 32.1621 119.985L28.5206 133.62L21.0092 161.728C20.2573 164.545 20.1054 167.495 20.5639 170.377C21.0224 173.259 22.0805 176.005 23.6658 178.428C25.251 180.85 27.326 182.891 29.7487 184.411C32.1714 185.932 34.8846 186.895 37.7027 187.236L59.1729 189.826L69.1085 191.026C70.2574 191.168 71.4162 190.86 72.3539 190.162C73.2916 189.464 73.9395 188.428 74.1684 187.26C74.1845 187.197 74.197 187.132 74.2059 187.067L74.4446 185.551L76.4665 172.783L76.4869 172.654C76.5923 172.002 76.5639 171.335 76.4036 170.696C76.2432 170.056 75.9546 169.458 75.5561 168.94Z" fill="#CACACA"/>
<path d="M114.898 196.086C116.368 196.438 117.896 196.453 119.373 196.131C120.85 195.809 122.24 195.157 123.446 194.223C124.652 193.288 125.644 192.092 126.352 190.72C127.06 189.348 127.468 187.832 127.546 186.28L162.788 175.754L148.269 163.028L117.028 174.975C114.487 175.014 112.047 176.01 110.172 177.776C108.297 179.542 107.116 181.955 106.853 184.557C106.591 187.159 107.265 189.77 108.747 191.895C110.23 194.02 112.418 195.511 114.898 196.086V196.086Z" fill="#FFB6B6"/>
<path d="M180.286 152.207L163.524 112.499C162.153 109.239 159.704 106.585 156.613 105.006C155.657 104.522 154.653 104.146 153.619 103.883C153.459 103.841 153.299 103.803 153.138 103.771C150.945 103.278 148.67 103.322 146.496 103.897C144.509 104.423 142.652 105.374 141.046 106.688C139.44 108.002 138.12 109.65 137.175 111.524C137.164 111.539 137.155 111.556 137.147 111.573C136.091 113.677 135.529 116.007 135.507 118.375C135.485 120.743 136.004 123.083 137.021 125.208L137.229 125.636L149.074 150.122C149.479 150.959 149.706 151.875 149.743 152.81C149.779 153.744 149.623 154.676 149.285 155.544C148.947 156.412 148.435 157.196 147.781 157.846C147.128 158.496 146.348 158.996 145.494 159.314L144.662 159.623L129.701 165.185C128.578 165.598 127.655 166.442 127.125 167.541C126.595 168.64 126.5 169.908 126.86 171.078L126.898 171.201L131.092 185.014C131.112 185.078 131.133 185.141 131.157 185.204C131.193 185.323 131.239 185.439 131.293 185.551C131.739 186.58 132.526 187.412 133.515 187.896C134.503 188.381 135.626 188.486 136.684 188.194L144.757 186.001L146.404 185.551L167.254 179.883C169.997 179.137 172.552 177.79 174.742 175.933C176.933 174.076 178.707 171.754 179.945 169.126C181.183 166.497 181.854 163.625 181.913 160.705C181.971 157.784 181.416 154.886 180.286 152.207L180.286 152.207Z" fill="#CACACA"/>
<path d="M15.3085 185.551C20.14 191.617 25.3507 197.352 30.9074 202.72H185.011C186.496 202.723 187.919 203.331 188.969 204.412C190.018 205.493 190.609 206.958 190.61 208.486L190.832 248.682C200.312 244.198 209.19 238.474 217.246 231.65C219.483 229.758 221.65 227.784 223.748 225.729C225.122 224.388 226.463 223.015 227.771 221.609C237.579 211.092 245.52 198.889 251.236 185.551H15.3085Z" fill="#3F3D56"/>
<path d="M227.771 221.609C226.465 223.016 225.124 224.389 223.748 225.729H190.944V221.609H227.771Z" fill="white"/>
<path d="M156.381 89.8275C156.219 89.5197 155.979 89.2626 155.687 89.0834C155.395 88.9043 155.061 88.8097 154.72 88.8098H42.94C42.4388 88.8111 41.9586 89.0169 41.6045 89.382C41.2505 89.7471 41.0514 90.2417 41.051 90.7576V159.623H156.613V90.7576C156.615 90.4322 156.535 90.1118 156.381 89.8275Z" fill="#3F3D56"/>
<path d="M40.9497 157.758V166.256C40.9497 166.608 41.0171 166.957 41.1481 167.283C41.2791 167.608 41.471 167.904 41.713 168.153C41.9551 168.402 42.2424 168.6 42.5586 168.735C42.8748 168.869 43.2137 168.939 43.556 168.939H86.209V185.71H85.6424C85.5979 185.71 85.5539 185.719 85.5128 185.736C85.4717 185.754 85.4344 185.78 85.403 185.812C85.3715 185.844 85.3466 185.883 85.3296 185.925C85.3126 185.967 85.3038 186.013 85.3038 186.058V187.225C85.3038 187.271 85.3126 187.316 85.3296 187.358C85.3466 187.401 85.3715 187.439 85.403 187.471C85.4344 187.504 85.4717 187.529 85.5128 187.547C85.5539 187.564 85.5979 187.573 85.6424 187.573H112.121C112.165 187.573 112.209 187.564 112.25 187.547C112.291 187.529 112.329 187.504 112.36 187.471C112.392 187.439 112.417 187.401 112.434 187.358C112.451 187.316 112.459 187.271 112.459 187.225V186.058C112.459 186.013 112.451 185.967 112.434 185.925C112.417 185.883 112.392 185.844 112.36 185.812C112.329 185.78 112.291 185.754 112.25 185.736C112.209 185.719 112.165 185.71 112.121 185.71H111.554V168.939H154.207C154.55 168.939 154.888 168.869 155.205 168.735C155.521 168.6 155.808 168.402 156.05 168.153C156.292 167.904 156.484 167.608 156.615 167.283C156.746 166.957 156.814 166.608 156.814 166.256V157.758H40.9497Z" fill="#3F3D56"/>
<path d="M97.4816 133.368C103.377 133.368 108.156 128.448 108.156 122.38C108.156 116.312 103.377 111.393 97.4816 111.393C91.5864 111.393 86.8074 116.312 86.8074 122.38C86.8074 128.448 91.5864 133.368 97.4816 133.368Z" fill="#608AF5"/>
<path d="M124.678 60.7156H122.974C122.974 47.4494 110.218 38.7561 97.3503 38.7491C95.4787 38.7435 93.6112 38.9304 91.7756 39.3071C89.7094 39.7318 87.5648 40.2407 85.4576 40.904C77.1484 43.5257 69.4427 48.5935 69.4427 60.7156C69.4409 63.0698 69.732 65.4145 70.3088 67.6926L68.6585 68.1348C68.0464 65.7121 67.7371 63.2189 67.7379 60.7156C67.7379 50.1237 71.9624 42.8483 79.259 38.5105C83.0948 36.2292 87.7762 34.7587 93.1395 34.0428C95.3714 33.7371 97.6277 33.6666 99.8735 33.8322C114.671 34.9272 124.678 46.6071 124.678 60.7156Z" fill="#608AF5"/>
<path d="M127.519 61.6877L126.847 56.5778C126.681 55.2873 126.077 54.0988 125.142 53.2226C124.542 52.6514 123.823 52.2282 123.04 51.985C122.258 51.7418 121.431 51.6849 120.624 51.8188L119.557 51.9697C119.265 52.0092 118.984 52.1081 118.729 52.2605C118.474 52.413 118.252 52.6159 118.074 52.8576C117.895 53.0985 117.763 53.3735 117.688 53.6669C117.612 53.9603 117.594 54.2661 117.634 54.5668L119.185 66.3379C119.249 66.8177 119.458 67.2646 119.783 67.6154C120.107 67.9662 120.53 68.2032 120.993 68.2927C121.13 68.321 121.269 68.3351 121.409 68.3349C121.509 68.3348 121.609 68.3278 121.709 68.3138L122.902 68.1488C123.63 68.0495 124.33 67.798 124.959 67.4099C125.589 67.0219 126.135 66.5054 126.564 65.8922C126.656 65.7588 126.745 65.622 126.826 65.4816C127.465 64.3332 127.709 62.9965 127.519 61.6877Z" fill="#608AF5"/>
<path d="M118.868 52.1838C118.555 52.3403 118.283 52.5713 118.074 52.8576C117.895 53.0985 117.763 53.3736 117.688 53.6669C117.612 53.9603 117.594 54.2661 117.634 54.5668L119.185 66.3379C119.249 66.8177 119.458 67.2646 119.783 67.6154C120.107 67.9663 120.53 68.2032 120.993 68.2927L118.868 52.1838Z" fill="white"/>
<path d="M127.519 61.6877L126.847 56.5778C126.681 55.2873 126.077 54.0988 125.142 53.2226L126.687 64.9341C126.71 65.1221 126.757 65.3061 126.826 65.4816C127.465 64.3332 127.709 62.9965 127.519 61.6877Z" fill="#3F3D56"/>
<path d="M122.21 65.3695C122.676 65.3044 122.911 64.1617 122.734 62.8172C122.557 61.4727 122.035 60.4356 121.568 60.5007C121.102 60.5658 120.867 61.7086 121.044 63.0531C121.222 64.3975 121.743 65.4347 122.21 65.3695Z" fill="#3F3D56"/>
<path d="M121.187 59.0523C121.654 58.9871 121.888 57.8444 121.711 56.4999C121.534 55.1554 121.012 54.1183 120.545 54.1834C120.079 54.2486 119.844 55.3913 120.022 56.7358C120.199 58.0803 120.721 59.1174 121.187 59.0523Z" fill="#3F3D56"/>
<path d="M127.665 61.509C128.132 61.4438 128.366 60.3011 128.189 58.9566C128.012 57.6121 127.49 56.575 127.024 56.6402C126.557 56.7053 126.323 57.848 126.5 59.1925C126.677 60.537 127.199 61.5741 127.665 61.509Z" fill="#3F3D56"/>
<path d="M97.3504 38.7491C95.4788 38.7435 93.6112 38.9304 91.7757 39.3071C89.7095 39.7318 87.5648 40.2407 85.4577 40.904C82.1674 40.7391 79.7466 39.8617 79.259 38.5105C83.0948 36.2292 87.7762 34.7587 93.1395 34.0428C95.3714 33.7371 97.6277 33.6666 99.8735 33.8322C100.111 33.9757 100.317 34.1693 100.477 34.4003C100.636 34.6314 100.747 34.8947 100.801 35.1729C100.961 36.3942 99.6076 37.6927 97.3504 38.7491Z" fill="#3F3D56"/>
<path d="M75.5835 72.8938L72.9581 61.6597C72.8645 61.2544 72.6566 60.8866 72.3606 60.6024C72.0646 60.3183 71.6936 60.1306 71.2942 60.0628C71.1814 60.0447 71.0675 60.0353 70.9533 60.0347C70.7924 60.0353 70.6322 60.0553 70.4759 60.0944L69.4599 60.3471C68.1517 60.6728 67.0224 61.5193 66.3199 62.701C65.6174 63.8827 65.399 65.303 65.7127 66.6503L66.889 71.69C67.1576 72.8765 67.7973 73.9394 68.7098 74.7153C68.8576 74.8382 69.0125 74.9518 69.1735 75.0557C69.745 75.4245 70.3825 75.6715 71.0483 75.7825C71.7142 75.8934 72.3949 75.8658 73.0502 75.7015L74.0628 75.4488C74.3306 75.3845 74.5825 75.2638 74.8027 75.0943C75.1302 74.8486 75.3793 74.5082 75.5183 74.1163C75.6573 73.7245 75.68 73.299 75.5835 72.8938Z" fill="#608AF5"/>
<path d="M70.0796 70.8035C70.5373 70.6902 70.6583 69.5289 70.3499 68.2097C70.0415 66.8906 69.4205 65.9131 68.9628 66.0265C68.5051 66.1399 68.384 67.3012 68.6924 68.6203C69.0008 69.9394 69.6219 70.9169 70.0796 70.8035Z" fill="#3F3D56"/>
<path d="M66.6699 71.8564C67.1276 71.7431 67.2487 70.5818 66.9403 69.2626C66.6319 67.9435 66.0108 66.966 65.5531 67.0794C65.0954 67.1928 64.9744 68.354 65.2828 69.6732C65.5912 70.9923 66.2122 71.9698 66.6699 71.8564Z" fill="#3F3D56"/>
<path d="M75.7505 72.8517L73.1251 61.6175C73.0228 61.179 72.7971 60.7813 72.4763 60.4741C72.1555 60.167 71.7537 59.9641 71.3214 59.8908L74.9049 75.2347C75.2588 74.9679 75.528 74.5992 75.6785 74.1751C75.829 73.751 75.854 73.2904 75.7505 72.8517Z" fill="white"/>
<path d="M66.3059 64.4252C66.2335 64.1128 66.0975 63.8197 65.907 63.5653C65.5379 64.5491 65.4701 65.6256 65.7126 66.6503L66.889 71.69C67.1575 72.8765 67.7972 73.9394 68.7097 74.7153L66.3059 64.4252Z" fill="#3F3D56"/>
</g>
<defs>
<clipPath id="clip0_73_81">
<rect width="290" height="260" fill="white"/>
</clipPath>
</defs>
</svg>
